<svg width="19" height="19" viewBox="0 0 19 19" fill="none" xmlns="http://www.w3.org/2000/svg">
<path d="M16.3979 8.8767L16.2702 8.7011C16.0467 8.42972 15.7833 8.21421 15.48 8.05457C15.073 7.8231 14.61 7.70337 14.1311 7.70337H4.19367C3.71476 7.70337 3.25979 7.8231 2.84474 8.05457C2.53344 8.22219 2.25408 8.45366 2.0226 8.74101C1.56764 9.32369 1.35213 10.0421 1.42396 10.7604L1.71929 14.488C1.82306 15.6134 1.95875 17.0022 4.489 17.0022H13.8437C16.374 17.0022 16.5017 15.6134 16.6135 14.48L16.9088 10.7684C16.9806 10.0979 16.805 9.42745 16.3979 8.8767ZM11.074 13.2827H7.25073C6.93943 13.2827 6.692 13.0273 6.692 12.724C6.692 12.4207 6.93943 12.1652 7.25073 12.1652H11.074C11.3853 12.1652 11.6328 12.4207 11.6328 12.724C11.6328 13.0353 11.3853 13.2827 11.074 13.2827Z" fill="#EEB21E"/>
<path opacity="0.4" d="M15.9805 6.13014C16.0281 6.51188 15.6104 6.77071 15.2404 6.66531C14.8878 6.56485 14.5198 6.51462 14.1392 6.51462H4.1938C3.80787 6.51462 3.42711 6.56886 3.06621 6.67292C2.70091 6.77825 2.28613 6.5286 2.28613 6.14842V4.75861C2.28613 1.90909 3.15616 1.03906 6.00568 1.03906H6.94754C8.08895 1.03906 8.44813 1.40623 8.91108 2.00487L9.86891 3.28197C10.0685 3.55335 10.0764 3.56931 10.4276 3.56931H12.3273C14.7508 3.56931 15.74 4.19987 15.9805 6.13014Z" fill="#EEB21E"/>
</svg>
