<svg width="19" height="19" viewBox="0 0 19 19" fill="none" xmlns="http://www.w3.org/2000/svg">
<path opacity="0.4" d="M14.7424 3.62742C14.8416 3.78336 14.6716 3.96502 14.4914 3.92406C14.1389 3.81906 13.7489 3.76656 13.3514 3.76656H10.9386C10.7814 3.76656 10.6333 3.69262 10.5389 3.56693L9.71389 2.46906C9.60824 2.3194 9.7081 2.10156 9.8913 2.10156H11.9564C13.1271 2.10156 14.1584 2.70961 14.7424 3.62742Z" fill="#EEB21E"/>
<path d="M15.2715 5.50656C14.949 5.27406 14.5815 5.10156 14.184 5.00406C13.914 4.92906 13.6365 4.89156 13.3515 4.89156H10.5615C10.1265 4.89156 10.0965 4.85406 9.864 4.54656L8.814 3.15156C8.3265 2.49906 7.944 2.10156 6.7215 2.10156H4.9815C3.1515 2.10156 1.6665 3.58656 1.6665 5.41656V13.7866C1.6665 15.6166 3.1515 17.1016 4.9815 17.1016H13.3515C15.1815 17.1016 16.6665 15.6166 16.6665 13.7866V8.20656C16.6665 7.08906 16.119 6.10656 15.2715 5.50656ZM10.959 12.8566H7.3665C7.074 12.8566 6.849 12.6241 6.849 12.3316C6.849 12.0466 7.074 11.8066 7.3665 11.8066H10.959C11.2515 11.8066 11.484 12.0466 11.484 12.3316C11.484 12.6241 11.2515 12.8566 10.959 12.8566Z" fill="#EEB21E"/>
</svg>
