<svg width="37" height="21" viewBox="0 0 37 21" fill="none" xmlns="http://www.w3.org/2000/svg">
<path id="Vector" d="M35.2018 0.425973H7.33035C7.13591 0.425973 6.95349 0.520186 6.83923 0.678551L5.46208 2.61496C3.12873 2.48266 2.50133 0.899009 2.47526 0.832861C2.38105 0.554224 2.09639 0.385842 1.80772 0.433952C1.51706 0.482062 1.30457 0.73464 1.30457 1.02728C1.30457 4.3509 2.94632 5.52355 3.66599 5.88236L4.27538 8.26979L0.99005 16.6812C0.66731 17.5291 0.78358 18.4833 1.29875 19.2311C1.81393 19.9788 2.6659 20.4258 3.57396 20.4258H11.0812C12.2559 20.4258 13.3042 19.6801 13.6871 18.5775L15.1725 14.4901H20.3104C22.4894 14.4901 24.3817 13.0909 25.0011 11.0563L25.8731 8.90936H33.2397C33.9693 8.90936 34.5627 8.31603 34.5627 7.58835V6.06084H35.2001C35.9298 6.06084 36.5211 5.46751 36.5211 4.73983V1.75301C36.5211 1.02333 35.9278 0.432002 35.2001 0.432002L35.2018 0.425973ZM11.9848 4.85409L14.234 1.62869H16.0661L13.817 4.85409H11.9848ZM8.68528 4.85409L10.9324 1.62869H12.7666L10.5175 4.85409H8.68328H8.68528ZM7.63887 1.62869H9.46705L7.21992 4.85409H5.34566L7.64092 1.62869H7.63887ZM4.66006 3.74153L3.98852 4.68567C3.63772 4.45314 3.12054 3.97005 2.7978 3.01585C3.26687 3.33659 3.88429 3.60518 4.66006 3.74153ZM23.8702 10.6514C23.3871 12.227 21.9578 13.2854 20.312 13.2854H15.6113L16.8521 9.87164L16.9303 10.038C17.4916 11.2347 18.7083 12.0065 20.0294 12.0065C20.3622 12.0065 20.6308 11.7379 20.6308 11.4051C20.6308 11.0723 20.3622 10.8037 20.0294 10.8037C19.1714 10.8037 18.3837 10.3026 18.0188 9.52679L17.7281 8.90539H24.5759L23.8702 10.6514ZM33.3618 7.58437C33.3618 7.65053 33.3077 7.70264 33.2415 7.70264H16.7959C16.7117 7.70264 16.6355 7.71668 16.5614 7.74474H16.5593C16.5593 7.74474 16.5573 7.74474 16.5573 7.74675C16.5393 7.75476 16.5233 7.76078 16.5072 7.7708H16.5052L16.5032 7.77281C16.3829 7.83695 16.2827 7.94119 16.2266 8.0775C16.2226 8.08552 16.2206 8.09354 16.2166 8.10156L12.5561 18.1726C12.3376 18.798 11.7463 19.221 11.0827 19.221H3.57553C3.05435 19.221 2.58726 18.9744 2.29059 18.5474C1.99392 18.1185 1.93177 17.5953 2.1162 17.1081L5.32147 8.90765H9.07605C9.40881 8.90765 9.67744 8.63903 9.67744 8.30626C9.67744 7.9735 9.40882 7.70487 9.07605 7.70487H5.37361L4.95265 6.05913H30.0401C30.3729 6.05913 30.6415 5.79051 30.6415 5.45774C30.6415 5.12498 30.3729 4.85635 30.0401 4.85635H15.2823L17.5314 1.63096H33.3618V7.58633L33.3618 7.58437ZM35.3203 4.73585C35.3203 4.80201 35.2662 4.85413 35.202 4.85413H34.5646V1.62873H35.202C35.2682 1.62873 35.3203 1.68286 35.3203 1.747V4.73585Z" fill="#112130"/>
</svg>
