<svg width="41" height="30" viewBox="0 0 41 30" fill="none" xmlns="http://www.w3.org/2000/svg">
<path d="M21.7563 24.3758H4.19629C3.78629 24.3758 3.44629 24.0358 3.44629 23.6258V18.6858C3.44629 13.4658 7.69629 9.21582 12.9163 9.21582H13.0363C18.2563 9.21582 22.5063 13.4658 22.5063 18.6858V23.6258C22.5063 24.0358 22.1663 24.3758 21.7563 24.3758ZM4.94629 22.8758H21.0063V18.6858C21.0063 14.2858 17.4263 10.7158 13.0363 10.7158H12.9163C8.51629 10.7158 4.94629 14.2958 4.94629 18.6858V22.8758Z" fill="#112130"/>
<path d="M12.9766 10.7161C12.5666 10.7161 12.2266 10.3761 12.2266 9.96613V7.03613C12.2266 6.62613 12.5666 6.28613 12.9766 6.28613C13.3866 6.28613 13.7266 6.62613 13.7266 7.03613V9.96613C13.7266 10.3761 13.3866 10.7161 12.9766 10.7161Z" fill="#112130"/>
<path d="M12.9771 27.786C10.6671 27.786 8.73711 25.976 8.57711 23.676C8.56711 23.466 8.63709 23.266 8.77709 23.116C8.91709 22.966 9.11711 22.876 9.32711 22.876H16.6271C16.8371 22.876 17.0371 22.966 17.1771 23.116C17.3171 23.266 17.3871 23.476 17.3771 23.676C17.2171 25.976 15.2871 27.786 12.9771 27.786ZM10.2471 24.376C10.6571 25.496 11.7371 26.286 12.9771 26.286C14.2171 26.286 15.2971 25.496 15.7071 24.376H10.2471Z" fill="#112130"/>
<g filter="url(#filter0_d_727_3714)">
<circle cx="26.0679" cy="10.7163" r="10.1978" fill="#F14A4A"/>
<circle cx="26.0679" cy="10.7163" r="9.69775" stroke="#AE2525"/>
</g>
<path d="M29.3408 13.4473H28.1377V15.5186H26.0732V13.4473H21.8076V11.9775L26.1895 5.52441H28.1377V11.8066H29.3408V13.4473ZM26.0732 11.8066V10.1113C26.0732 9.82878 26.0846 9.41862 26.1074 8.88086C26.1302 8.3431 26.1484 8.03092 26.1621 7.94434H26.1074C25.9388 8.31803 25.736 8.68262 25.499 9.03809L23.667 11.8066H26.0732Z" fill="white"/>
<defs>
<filter id="filter0_d_727_3714" x="11.8701" y="0.518555" width="28.3955" height="28.3955" filterUnits="userSpaceOnUse" color-interpolation-filters="sRGB">
<feFlood flood-opacity="0" result="BackgroundImageFix"/>
<feColorMatrix in="SourceAlpha" type="matrix" values="0 0 0 0 0 0 0 0 0 0 0 0 0 0 0 0 0 0 127 0" result="hardAlpha"/>
<feOffset dy="4"/>
<feGaussianBlur stdDeviation="2"/>
<feComposite in2="hardAlpha" operator="out"/>
<feColorMatrix type="matrix" values="0 0 0 0 0 0 0 0 0 0 0 0 0 0 0 0 0 0 0.25 0"/>
<feBlend mode="normal" in2="BackgroundImageFix" result="effect1_dropShadow_727_3714"/>
<feBlend mode="normal" in="SourceGraphic" in2="effect1_dropShadow_727_3714" result="shape"/>
</filter>
</defs>
</svg>
