<svg width="21" height="21" viewBox="0 0 21 21" fill="none" xmlns="http://www.w3.org/2000/svg">
<path d="M15.8232 7.19076C14.4306 6.6675 12.6993 6.35742 10.8232 6.35742C8.94718 6.35742 7.21593 6.6675 5.82324 7.19076" stroke="white" stroke-width="1.5" stroke-linecap="round"/>
<path d="M6.63144 7.18945L6.02354 6.01234C5.5412 5.07838 5.30004 4.61139 5.45192 4.19864C5.60381 3.7859 6.07119 3.63814 7.00596 3.34263L10.3149 2.29657C10.5407 2.22516 10.6537 2.18945 10.7695 2.18945C10.8854 2.18945 10.9984 2.22516 11.2243 2.29657L14.7559 3.41306C15.598 3.67925 16.019 3.81235 16.1795 4.186C16.3401 4.55966 16.1676 5.00496 15.8227 5.89557L15.3215 7.18945" stroke="white" stroke-width="1.5" stroke-linecap="round"/>
<path d="M6.65649 7.18945V8.6271C6.65649 10.1215 7.4244 11.5063 8.67943 12.2751L9.10818 12.5378C10.1637 13.1845 11.4826 13.1845 12.5382 12.5378L12.9669 12.2751C14.2219 11.5063 14.9898 10.1215 14.9898 8.6271V7.18945" stroke="white" stroke-width="1.5" stroke-linecap="round"/>
<path d="M13.3233 12.1895L14.1567 14.6895M14.1567 14.6895L13.016 15.6856C11.9711 16.5982 11.4487 17.0545 10.8233 17.0545C10.198 17.0545 9.67557 16.5982 8.63069 15.6856L7.48999 14.6895M14.1567 14.6895L15.6017 15.1711C16.4335 15.4484 16.8493 15.587 17.2185 15.8013C17.5799 16.011 17.9077 16.274 18.1908 16.5812C18.4801 16.8951 19.1567 18.0228 19.1567 18.8561M7.48999 14.6895L8.32332 12.1895M7.48999 14.6895L6.04487 15.1711C5.21316 15.4484 4.7973 15.587 4.42813 15.8013C4.06676 16.011 3.73901 16.274 3.45585 16.5812C3.16658 16.8951 2.48999 18.0228 2.48999 18.8561" stroke="white" stroke-width="1.5" stroke-linecap="round" stroke-linejoin="round"/>
</svg>
