<svg width="18" height="19" viewBox="0 0 18 19" fill="none" xmlns="http://www.w3.org/2000/svg">
<rect width="18" height="19" fill="#989898"/>
<g id="American-gurad2-4" clip-path="url(#clip0_0_1)" filter="url(#filter0_d_0_1)">
<rect width="1504" height="1260" transform="translate(-288 -428)" fill="#F4F4F4"/>
<g id="Rectangle 6908" filter="url(#filter1_d_0_1)">
<path d="M-19.7651 -53.6562C-19.7651 -60.2837 -14.3926 -65.6562 -7.76514 -65.6562H1188.29C1194.92 -65.6562 1200.29 -60.2837 1200.29 -53.6562V119.01C1200.29 125.637 1194.92 131.01 1188.29 131.01H-7.76511C-14.3925 131.01 -19.7651 125.637 -19.7651 119.01V-53.6562Z" fill="white"/>
</g>
<g id="Group 1171276627">
<g id="Group 1171276626">
<path id="Union" fill-rule="evenodd" clip-rule="evenodd" d="M12.0198 0.50472L14.3715 2.73434C15.8647 2.87376 17.038 4.1332 17.038 5.66337V15.1808C17.038 16.8033 15.7181 18.1242 14.0946 18.1242H3.17515C1.55375 18.1242 0.234863 16.8033 0.234863 15.1808V5.66337C0.234863 4.13323 1.40704 2.87382 2.90131 2.73332L5.25297 0.503694C5.25689 0.499774 5.26173 0.496465 5.26665 0.493099C5.27074 0.490302 5.27488 0.487467 5.27861 0.484208C5.30322 0.462671 5.32886 0.44216 5.35758 0.424725C5.36783 0.418571 5.37809 0.413329 5.38835 0.408087C5.39347 0.405466 5.3986 0.402846 5.40373 0.400111C5.42937 0.38678 5.45501 0.375498 5.4827 0.365242C5.50116 0.359089 5.51859 0.353961 5.53705 0.348833C5.56269 0.341654 5.58936 0.337551 5.61705 0.333449C5.63756 0.330372 5.65705 0.328321 5.67756 0.327296C5.68015 0.326971 5.68275 0.326545 5.68537 0.326113C5.69105 0.325178 5.69689 0.324219 5.7032 0.324219L11.5696 0.325244C11.5736 0.325244 11.5776 0.325969 11.5817 0.326715C11.586 0.327506 11.5905 0.328322 11.5952 0.328322C11.6158 0.329347 11.6352 0.331398 11.6558 0.334475C11.6834 0.338577 11.7101 0.342679 11.7357 0.349858C11.7519 0.353446 11.7673 0.358602 11.7832 0.363955C11.7855 0.364723 11.7878 0.365496 11.7901 0.366268C11.8178 0.376523 11.8434 0.387804 11.8691 0.401137C11.8742 0.403873 11.8793 0.406495 11.8845 0.409118C11.8947 0.414358 11.905 0.419599 11.9152 0.425751C11.9429 0.443184 11.9686 0.463697 11.9942 0.485234C11.9983 0.488824 12.0027 0.491901 12.007 0.494978C12.0114 0.498054 12.0157 0.501131 12.0198 0.50472ZM6.8149 1.63702L8.63531 4.93831L10.4557 1.63702H6.8149ZM13.3479 3.57432L11.7316 2.04108L9.45373 6.17014L11.87 8.46745L13.3479 3.57432ZM7.81587 6.17019L5.53906 2.04108L3.92173 3.57437L5.3996 8.4675L7.81587 6.17019ZM1.54753 5.66347V15.1809C1.54753 16.0803 2.27771 16.8116 3.17613 16.8116H7.97999V7.82747L5.53295 10.1535C5.40885 10.2704 5.2468 10.334 5.08066 10.334C5.02425 10.334 4.96785 10.3268 4.91246 10.3125C4.69197 10.254 4.51762 10.0858 4.45198 9.86736L2.71054 4.10151C2.03878 4.30252 1.54753 4.92608 1.54753 5.66347ZM14.0945 16.8116C14.9939 16.8116 15.7252 16.0803 15.7252 15.1809L15.7252 5.66339C15.7252 4.92599 15.2329 4.30244 14.5612 4.10143L12.8197 9.86727C12.7541 10.0857 12.5797 10.2539 12.3592 10.3124C12.3039 10.3267 12.2474 10.3339 12.191 10.3339C12.0249 10.3339 11.8618 10.2703 11.7387 10.1534L9.29171 7.82738V16.8116H14.0945ZM11.1812 11.918H13.7762C14.0576 11.918 14.285 12.1461 14.2858 12.4268V14.0463C14.2858 14.8651 13.6195 15.5306 12.8015 15.5306H12.1567C11.3378 15.5306 10.6724 14.8643 10.6724 14.0463V12.4268C10.6724 12.1453 10.8997 11.918 11.1812 11.918ZM12.8006 14.5138C13.0583 14.5138 13.2673 14.3047 13.2673 14.0471L13.2665 12.9364H11.6892V14.0471C11.6892 14.3047 11.8983 14.5138 12.1559 14.5138H12.8006Z" fill="#112130"/>
</g>
</g>
</g>
<defs>
<filter id="filter0_d_0_1" x="-388" y="-528" width="1704" height="1460" filterUnits="userSpaceOnUse" color-interpolation-filters="sRGB">
<feFlood flood-opacity="0" result="BackgroundImageFix"/>
<feColorMatrix in="SourceAlpha" type="matrix" values="0 0 0 0 0 0 0 0 0 0 0 0 0 0 0 0 0 0 127 0" result="hardAlpha"/>
<feOffset/>
<feGaussianBlur stdDeviation="50"/>
<feComposite in2="hardAlpha" operator="out"/>
<feColorMatrix type="matrix" values="0 0 0 0 0 0 0 0 0 0 0 0 0 0 0 0 0 0 0.25 0"/>
<feBlend mode="normal" in2="BackgroundImageFix" result="effect1_dropShadow_0_1"/>
<feBlend mode="normal" in="SourceGraphic" in2="effect1_dropShadow_0_1" result="shape"/>
</filter>
<filter id="filter1_d_0_1" x="-29.7651" y="-71.6562" width="1240.06" height="216.666" filterUnits="userSpaceOnUse" color-interpolation-filters="sRGB">
<feFlood flood-opacity="0" result="BackgroundImageFix"/>
<feColorMatrix in="SourceAlpha" type="matrix" values="0 0 0 0 0 0 0 0 0 0 0 0 0 0 0 0 0 0 127 0" result="hardAlpha"/>
<feOffset dy="4"/>
<feGaussianBlur stdDeviation="5"/>
<feComposite in2="hardAlpha" operator="out"/>
<feColorMatrix type="matrix" values="0 0 0 0 0 0 0 0 0 0 0 0 0 0 0 0 0 0 0.1 0"/>
<feBlend mode="normal" in2="BackgroundImageFix" result="effect1_dropShadow_0_1"/>
<feBlend mode="normal" in="SourceGraphic" in2="effect1_dropShadow_0_1" result="shape"/>
</filter>
<clipPath id="clip0_0_1">
<rect width="1504" height="1260" fill="white" transform="translate(-288 -428)"/>
</clipPath>
</defs>
</svg>
